<svg xmlns="http://www.w3.org/2000/svg" width="18" height="18" viewBox="0 0 18 18">
  <g data-name="47547" transform="translate(-824 -111)">
    <g data-name="47545">
      <path data-name="24788" fill="none" d="M824 111h18v18h-18z" />
      <path data-name="25260"
        d="M825.814 115.431h3.964a9.418 9.418 0 0 1 .414-1.079h-4.378c-.213 0-.386.241-.386.54s.173.54.386.54zm.04 5.478h4.956a8.7 8.7 0 0 1-.528-1.082h-4.428a.491.491 0 0 0-.413.541.489.489 0 0 0 .413.541zm13.133 4.263H825.84a.562.562 0 0 0 0 1.082h13.147a.562.562 0 0 0 0-1.082z"
        fill="#626a6a" />
      <path data-name="25261"
        d="M840.5 123.66l-2.283-2.333a4.466 4.466 0 0 0 1.561-3.411 4.638 4.638 0 1 0-4.688 4.593 3.9 3.9 0 0 0 2.257-.507l2.365 2.407c.15.153.53.038.682-.112s.256-.488.106-.641zm-5.4-2.256a3.538 3.538 0 1 1 3.576-3.5 3.538 3.538 0 0 1-3.576 3.5z"
        fill="#ff2442" />
    </g>
    <circle data-name="3268" cx="3" cy="3" r="3" transform="translate(833 115)" opacity=".3" fill="#ff2442" />
  </g>
</svg>